<?xml version="1.0" encoding="UTF-8" standalone="no"?>
<!DOCTYPE svg PUBLIC "-//W3C//DTD SVG 1.1//EN" "http://www.w3.org/Graphics/SVG/1.1/DTD/svg11.dtd">
<svg width="100%" height="100%" viewBox="0 0 2200 1000" version="1.1" xmlns="http://www.w3.org/2000/svg" xmlns:xlink="http://www.w3.org/1999/xlink" xml:space="preserve" xmlns:serif="http://www.serif.com/" style="fill-rule:evenodd;clip-rule:evenodd;stroke-linejoin:round;stroke-miterlimit:2;">
    <g transform="matrix(1,0,0,1,13,31)">
        <g transform="matrix(0.389169,0,0,0.480751,-97.8816,-115.751)">
            <rect x="357.393" y="824.747" width="742.607" height="175.253" style="fill:white;"/>
        </g>
        <g transform="matrix(0.451113,0,0,0.480751,1209.98,-115.751)">
            <rect x="357.393" y="824.747" width="742.607" height="175.253" style="fill:white;"/>
        </g>
        <g transform="matrix(0.239696,0,0,0.479616,1697.91,-114.616)">
            <rect x="357.393" y="824.747" width="742.607" height="175.253" style="fill:white;"/>
        </g>
        <g transform="matrix(0.250469,0,0,0.480751,1694.06,78.002)">
            <rect x="357.393" y="824.747" width="742.607" height="175.253" style="fill:white;"/>
        </g>
        <g transform="matrix(2.76227e-17,0.451113,-0.606284,3.71242e-17,2091.86,161.649)">
            <rect x="357.393" y="824.747" width="742.607" height="175.253" style="fill:white;"/>
        </g>
        <g transform="matrix(1.51202e-17,0.246932,-0.610087,3.73571e-17,2393.67,386.248)">
            <rect x="357.393" y="824.747" width="742.607" height="175.253" style="fill:white;"/>
        </g>
        <g transform="matrix(0.0924693,0.140581,-0.463904,0.305139,2376.34,198.095)">
            <rect x="357.393" y="824.747" width="742.607" height="175.253" style="fill:white;"/>
        </g>
        <g transform="matrix(0.389169,0,0,0.480751,-97.8816,49.2489)">
            <rect x="357.393" y="824.747" width="742.607" height="175.253" style="fill:white;"/>
        </g>
        <g transform="matrix(1.74493e-17,0.284968,-0.606284,3.71242e-17,647.489,343.901)">
            <rect x="357.393" y="824.747" width="742.607" height="175.253" style="fill:white;"/>
        </g>
        <g transform="matrix(1,0,0,1.02451,0,-6.63447)">
            <path d="M612.429,270.634C727.981,270.634 821.795,357.392 821.795,464.253C821.795,571.115 727.981,657.873 612.429,657.873C496.877,657.873 403.063,571.115 403.063,464.253C403.063,357.392 496.877,270.634 612.429,270.634ZM612.429,369.38C669.05,369.38 715.018,411.891 715.018,464.253C715.018,516.616 669.05,559.127 612.429,559.127C555.808,559.127 509.839,516.616 509.839,464.253C509.839,411.891 555.808,369.38 612.429,369.38Z" style="fill:white;"/>
        </g>
        <g transform="matrix(1,0,0,1.02451,492.571,-6.63447)">
            <path d="M612.429,270.634C727.981,270.634 821.795,357.392 821.795,464.253C821.795,571.115 727.981,657.873 612.429,657.873C496.877,657.873 403.063,571.115 403.063,464.253C403.063,357.392 496.877,270.634 612.429,270.634ZM612.429,369.38C669.05,369.38 715.018,411.891 715.018,464.253C715.018,516.616 669.05,559.127 612.429,559.127C555.808,559.127 509.839,516.616 509.839,464.253C509.839,411.891 555.808,369.38 612.429,369.38Z" style="fill:white;"/>
        </g>
        <g transform="matrix(0.847802,0,0,0.717404,1428.37,86.7922)">
            <clipPath id="_clip1">
                <rect x="396.482" y="270.634" width="425.314" height="387.24"/>
            </clipPath>
            <g clip-path="url(#_clip1)">
                <path d="M612.429,657.873C728.059,657.873 821.795,571.187 821.795,464.253C821.795,357.32 728.059,270.634 612.429,270.634L612.429,387.655C658.173,387.655 695.256,421.95 695.256,464.253C695.256,506.557 658.173,540.852 612.429,540.852L612.429,657.873Z" style="fill:white;"/>
            </g>
        </g>
        <g transform="matrix(1.11369,0,0,1,-182.819,-121.726)">
            <path d="M2039.82,715.747L2079.22,779.599L1972.72,779.599L2039.82,715.747Z" style="fill:white;"/>
        </g>
        <g transform="matrix(1.99605,0,0,1.2711,-1913.43,-128.636)">
            <path d="M1942.4,388.354C1955.33,392.087 1965.83,410.102 1965.83,431.427C1965.83,452.752 1955.33,470.767 1942.4,474.5C1959.88,474.5 1974.07,455.2 1974.07,431.427C1974.07,407.654 1959.88,388.354 1942.4,388.354Z" style="fill:white;"/>
        </g>
    </g>
</svg>
